<?xml version="1.0" encoding="UTF-8"?>
<!DOCTYPE svg PUBLIC "-//W3C//DTD SVG 1.1//EN" "http://www.w3.org/Graphics/SVG/1.1/DTD/svg11.dtd">
<!-- Creator: CorelDRAW 2020 (64-Bit Evaluation Version) -->
<svg xmlns="http://www.w3.org/2000/svg" xml:space="preserve" width="22.926mm" height="14.127mm" version="1.1" style="shape-rendering:geometricPrecision; text-rendering:geometricPrecision; image-rendering:optimizeQuality; fill-rule:evenodd; clip-rule:evenodd"
viewBox="0 0 2292.6 1412.7"
 xmlns:xlink="http://www.w3.org/1999/xlink"
 xmlns:xodm="http://www.corel.com/coreldraw/odm/2003">
 <defs>
  <style type="text/css">
   <![CDATA[
    .fil1 {fill:none}
    .fil0 {fill:#FEFEFE}
   ]]>
  </style>
 </defs>
 <g id="Layer_x0020_1">
  <metadata id="CorelCorpID_0Corel-Layer"/>
  <g id="_2799240873152">
   <path class="fil0" d="M50.93 492.82c257.55,-188.77 307.82,-296.11 632.2,-411.3 -184.88,182.62 -21.95,26.68 -185.08,171.42 -126.24,112 -226.18,235.57 -358.28,354.33 -31.6,24.53 -77.11,18.8 -101.64,-12.81 -24.53,-31.6 -18.8,-77.11 12.8,-101.64z"/>
  </g>
  <path class="fil1" d="M95.35 550.04c245.4,-190.49 225.94,-251.9 587.78,-468.52"/>
  <g id="_2799240873056">
   <path class="fil0" d="M442.66 285.63c104.61,98.1 370.6,389.74 393.81,511.45 -123.08,-60.03 -340.94,-288.97 -475.09,-391.52 -33.12,-22.44 -41.77,-67.49 -19.33,-100.61 22.45,-33.11 67.5,-41.76 100.61,-19.32z"/>
  </g>
  <path class="fil1" d="M402.02 345.6c40.73,27.6 424.22,421.93 434.45,451.48"/>
  <g id="_2799240868592">
   <path class="fil0" d="M738.58 451.85c-2.16,-26.48 -4.76,-52.91 -7.08,-78.9 -8.29,-14.44 -11.89,-27.55 -9.73,-38.5 1.15,-5.84 3.02,-11.26 5.48,-16.29 -9.78,-158.59 11.73,-289.49 242.44,-298.32 268.22,-10.26 522.94,184.82 436.5,450.07 -70.95,217.72 -360.2,136.44 -539.38,23.98 -12.42,15.06 -30.85,25.09 -51.88,26.26 -39.94,2.22 -74.13,-28.36 -76.35,-68.3zm142.71 -23.93c576.37,315.2 521.91,-236.8 211.8,-277.41 -287.67,-37.67 -238.95,63.13 -211.8,277.41z"/>
  </g>
  <path class="fil1" d="M810.91 447.82c-9.97,-179.43 -114.34,-412.44 290.36,-357.05 412.49,56.46 389.86,814.99 -331.49,296.69 -78.82,-56.63 15.63,-104.83 58.17,-135.56"/>
  <g id="_2799240866624">
   <path class="fil0" d="M1005.77 856.98c219.13,168.18 415.91,309.93 639.4,470.34 17.12,12.28 70.86,46.52 51.67,74.58 -13.64,-7.24 -17.47,-12.69 -34.83,-20.17 -314.08,-135.38 -455.67,-224.35 -739.29,-406.03 -32.78,-22.93 -40.77,-68.1 -17.84,-100.88 22.94,-32.78 68.1,-40.77 100.89,-17.84z"/>
  </g>
  <path class="fil1" d="M964.24 916.34c273.91,191.6 363.63,262.45 670.05,430.79 17.63,9.69 60.18,29.49 62.55,54.77"/>
  <g id="_2799240856016">
   <path class="fil0" d="M1003.13 854.9c166.68,-122.68 596.81,-268.24 744.63,-37.36 84.01,131.21 59.41,361.17 -108.12,439.24 -12.16,5.66 -25.92,13.85 -36.44,18.51 -9.52,-39.47 105.06,-51.54 122.85,-199.03 50.93,-422.04 -425.72,-290.2 -628.65,-146.19 -20.76,26.03 -58.69,30.3 -84.72,9.54 -26.03,-20.75 -30.31,-58.68 -9.55,-84.71z"/>
  </g>
  <path class="fil1" d="M1050.26 892.48c52.99,-66.43 708.9,-350.98 708.9,113.43 0,227.55 -141.26,226.92 -155.96,269.38"/>
  <g id="_2799240847424">
   <path class="fil0" d="M1581.57 679.65c-2.16,-26.47 -4.77,-52.9 -7.08,-78.89 -8.29,-14.45 -11.89,-27.55 -9.73,-38.5 1.15,-5.84 3.02,-11.26 5.48,-16.3 -9.78,-158.58 11.73,-289.49 242.44,-298.31 268.22,-10.27 522.93,184.82 436.5,450.06 -70.95,217.72 -360.21,136.45 -539.38,23.98 -12.42,15.07 -30.85,25.1 -51.88,26.27 -39.94,2.22 -74.13,-28.36 -76.35,-68.31zm142.71 -23.92c576.37,315.19 521.91,-236.81 211.8,-277.41 -287.67,-37.67 -238.95,63.13 -211.8,277.41z"/>
  </g>
  <path class="fil1" d="M1653.9 675.63c-9.97,-179.44 -114.34,-412.44 290.36,-357.05 412.49,56.46 389.86,814.99 -331.5,296.69 -78.81,-56.63 15.64,-104.83 58.18,-135.57"/>
 </g>
</svg>
